# xmcd
#
# Track frame offsets:
#	150
#	22164
#	40273
#	60837
#	78835
#	96919
#	111234
#	132914
#	151480
#
# Disc length: 2204 seconds
#
# Revision: 0
# Processed by: cddbd v1.5.2PL0 Copyright (c) Steve Scherf et al.
# Submitted via: audiograbber 1.83.01
#
DISCID=6c089a09
DTITLE=Various Artist - ASK1310B
DYEAR=2013
DGENRE=KARAOKE
TTITLE0=MILEY CYRUS - ADORE YOU
TTITLE1=KEITH URBAN - EVEN THE STARS FALL 4 U
TTITLE2=GEORGE STRAIT - I GOT A CAR
TTITLE3=CELINE DION - LOVED ME BACK TO LIFE
TTITLE4=BRUNO MARS - NATALIE
TTITLE5=CHACE RICE - READY SET ROLL
TTITLE6=EMINEM - SURVIVAL
TTITLE7=TAYLOR SWIFT - SWEETER THAN FICTION
TTITLE8=ERIC CHURCH - THE OUTSIDERS
EXTD=
EXTT0=
EXTT1=
EXTT2=
EXTT3=
EXTT4=
EXTT5=
EXTT6=
EXTT7=
EXTT8=
PLAYORDER=
